<svg viewBox="0 0 380 37" xmlns="http://www.w3.org/2000/svg" fill-rule="evenodd" clip-rule="evenodd" stroke-linejoin="round" stroke-miterlimit="1.414"><path d="M5.264 20.916c.642 0 1.108-.191 1.399-.572.291-.381.436-.94.436-1.677 0-.683-.156-1.183-.469-1.498-.312-.316-.824-.474-1.536-.474-.167 0-.371.013-.61.038-.24.026-.411.049-.514.071v4.081c.205.02.636.031 1.294.031m.008 5.951c.841 0 1.451-.211 1.831-.633.38-.422.57-1.03.57-1.825 0-.548-.079-.984-.238-1.309a1.449 1.449 0 0 0-.736-.709c-.331-.148-.764-.222-1.298-.222H3.962v4.554c.173.096.609.144 1.31.144m-4.01-.255v-9.526l-1.245-.22v-1.222h5.158c1.164 0 2.085.106 2.761.319.677.212 1.156.517 1.439.912.283.397.425.893.425 1.492 0 .529-.113 1.003-.34 1.42a2.77 2.77 0 0 1-.938 1.015c-.399.26-.854.429-1.366.507.701 0 1.314.113 1.84.337.525.225.933.553 1.224.983.291.43.437.945.437 1.544 0 2.518-1.766 3.777-5.296 3.777H0v-1.131l1.262-.207zm15.912-4.33.008-.581c0-.577-.097-1.025-.291-1.343-.194-.319-.523-.477-.986-.477-.308 0-.569.067-.785.201-.215.133-.388.376-.517.729-.13.353-.202.844-.218 1.471h2.789zm-4.928-1.38a3.88 3.88 0 0 1 1.581-1.604c.679-.371 1.466-.557 2.361-.557 1.137 0 2.009.265 2.615.795.607.531.923 1.292.95 2.284 0 .689-.04 1.212-.121 1.57h-5.223c.064.991.308 1.727.731 2.207.424.48.986.72 1.686.72.405 0 .826-.07 1.266-.211.439-.14.796-.299 1.071-.477l.469 1.003c-.189.2-.468.402-.837.606a6.097 6.097 0 0 1-1.269.514 5.18 5.18 0 0 1-1.435.206c-1.003 0-1.833-.191-2.491-.573a3.463 3.463 0 0 1-1.451-1.6c-.31-.684-.465-1.486-.465-2.405 0-.955.187-1.781.562-2.478m9.795 5.869V20.73l-.978-.324v-1.277l2.708-.372h.041l.477.356v.469l-.041 1.277h.041c.075-.242.246-.531.513-.865a3.806 3.806 0 0 1 1.023-.877 2.576 2.576 0 0 1 1.358-.376c.135 0 .258.012.368.037a.91.91 0 0 1 .263.096V21.7a1.964 1.964 0 0 0-.578-.338 2.122 2.122 0 0 0-.716-.107c-.399 0-.765.051-1.099.15-.335.099-.588.224-.76.372v4.986l1.908.162v1.025h-5.595v-1.033l1.067-.146zm7.714-.066V15.968l-1.189-.211v-.994l3.267-.396h.04l.485.355v11.983l1.092.162v1.083h-4.778v-1.083l1.083-.162zm5.599-11.586a1.39 1.39 0 0 1 .534-.578c.234-.143.513-.215.836-.215h.009c.307 0 .57.062.788.187.218.123.385.288.501.493.116.204.174.431.174.679 0 .463-.14.842-.42 1.136-.281.294-.682.44-1.205.44h-.008c-.27 0-.51-.059-.72-.177a1.31 1.31 0 0 1-.493-.481 1.324 1.324 0 0 1-.178-.684c0-.291.061-.558.182-.8m.214 11.586v-6.21l-1.091-.331v-1.237l3.185-.404h.041l.501.356v7.834l1.035.154v1.084h-4.754v-1.084l1.083-.162zm5.902.054v-6.031l-.995-.313V19.08l2.919-.372h.041l.444.356v.59l-.016.372c.383-.356.872-.659 1.468-.91a4.667 4.667 0 0 1 1.823-.375c.668 0 1.195.118 1.581.353.385.236.663.613.833 1.131.169.519.254 1.223.254 2.112v4.407l.97.14v1.066h-4.495V26.9l.849-.148v-4.396c0-.522-.035-.929-.105-1.221-.07-.293-.197-.507-.38-.645-.183-.136-.448-.205-.792-.205-.313 0-.624.07-.934.209a3.32 3.32 0 0 0-.797.493v5.765l.938.148v1.05h-4.544V26.9l.938-.141zm15.621-9.707-1.051-.231v-1.177h5.255v1.177l-1.366.239v6.017c0 1.268.215 2.207.647 2.817.431.611 1.083.916 1.957.916.862 0 1.501-.324 1.916-.971.415-.648.622-1.555.622-2.723v-6.064l-1.39-.231v-1.177h4.236v1.177l-1.091.231v5.939c0 1.148-.198 2.093-.594 2.834-.397.742-.943 1.282-1.638 1.623-.695.34-1.507.51-2.433.51-1.16 0-2.111-.176-2.855-.526a3.445 3.445 0 0 1-1.665-1.65c-.367-.75-.55-1.725-.55-2.926v-5.804zm12.767 9.707v-6.031l-.994-.313V19.08l2.918-.372h.041l.445.356v.59l-.016.372c.382-.356.871-.659 1.467-.91a4.667 4.667 0 0 1 1.823-.375c.668 0 1.195.118 1.581.353.385.236.663.613.832 1.131.17.519.255 1.223.255 2.112v4.407l.971.14v1.066h-4.496V26.9l.849-.148v-4.396c0-.522-.035-.929-.105-1.221-.07-.293-.197-.507-.38-.645-.183-.136-.448-.205-.793-.205-.312 0-.623.07-.933.209a3.32 3.32 0 0 0-.797.493v5.765l.938.148v1.05H68.92V26.9l.938-.141zm11.186-11.64c.121-.243.299-.435.533-.578a1.58 1.58 0 0 1 .838-.215h.007c.308 0 .571.062.789.187.218.123.385.288.501.493.116.204.174.431.174.679 0 .463-.14.842-.42 1.136-.281.294-.683.44-1.205.44h-.008c-.27 0-.509-.059-.72-.177a1.302 1.302 0 0 1-.671-1.165c0-.291.061-.558.182-.8m.214 11.586v-6.21l-1.091-.331v-1.237l3.185-.404h.041l.501.356v7.834l1.035.154v1.084h-4.754v-1.084l1.083-.162zm3.995-6.897v-1.059h4.697v1.059l-1.091.207 1.39 4.234.469 1.647.388-1.615 1.335-4.274-1.035-.199v-1.059h3.8v1.059l-.841.199-3.008 7.943h-2.142l-3.283-7.935-.679-.207zm15.669 2.474.008-.581c0-.577-.097-1.025-.291-1.343-.194-.319-.523-.477-.986-.477-.308 0-.569.067-.785.201-.215.133-.388.376-.517.729s-.202.844-.218 1.471h2.789zm-4.928-1.38a3.886 3.886 0 0 1 1.581-1.604c.679-.371 1.466-.557 2.361-.557 1.137 0 2.009.265 2.615.795.607.531.923 1.292.95 2.284 0 .689-.04 1.212-.121 1.57h-5.223c.065.991.308 1.727.732 2.207.423.48.984.72 1.685.72.405 0 .826-.07 1.266-.211.439-.14.796-.299 1.071-.477l.469 1.003c-.189.2-.468.402-.837.606a6.097 6.097 0 0 1-1.269.514 5.182 5.182 0 0 1-1.436.206c-1.002 0-1.832-.191-2.49-.573a3.457 3.457 0 0 1-1.451-1.6c-.31-.684-.465-1.486-.465-2.405 0-.955.187-1.781.562-2.478m9.795 5.869V20.73l-.979-.324v-1.277l2.709-.372h.041l.476.356v.469l-.04 1.277h.04c.076-.242.247-.531.514-.865a3.806 3.806 0 0 1 1.023-.877 2.576 2.576 0 0 1 1.358-.376c.135 0 .257.012.368.037a.9.9 0 0 1 .263.096V21.7a1.964 1.964 0 0 0-.578-.338 2.122 2.122 0 0 0-.716-.107c-.399 0-.765.051-1.1.15-.334.099-.587.224-.759.372v4.986l1.908.162v1.025h-5.595v-1.033l1.067-.146zm8.538-1.592.412 1.197c.081.128.266.245.554.349.288.105.587.157.894.157.469 0 .814-.094 1.035-.282a.912.912 0 0 0 .331-.729.831.831 0 0 0-.255-.595 2.494 2.494 0 0 0-.67-.475 22.717 22.717 0 0 0-1.217-.56l-.421-.186c-.754-.319-1.314-.696-1.678-1.131-.363-.435-.545-.988-.545-1.658 0-.484.148-.916.444-1.297.296-.381.721-.681 1.274-.9.552-.219 1.203-.329 1.953-.329.511 0 .95.033 1.317.097.367.065.771.154 1.213.267.237.07.426.116.566.138v2.123h-1.455l-.421-1.128c-.059-.112-.192-.212-.4-.299a1.909 1.909 0 0 0-.74-.13c-.431 0-.763.087-.994.263a.82.82 0 0 0-.348.687c0 .237.074.439.223.607.147.167.333.309.557.425.224.115.541.258.95.428l.38.155c.588.247 1.076.488 1.464.722.388.234.71.532.966.892.256.361.384.796.384 1.306 0 .504-.138.957-.412 1.359-.275.402-.697.72-1.266.955-.569.233-1.271.351-2.106.351-.582 0-1.112-.05-1.589-.15-.477-.099-.979-.23-1.507-.392a5.684 5.684 0 0 0-.445-.129v-2.108h1.552zm7.815-10.06c.122-.243.299-.435.534-.578.234-.143.513-.215.836-.215h.009c.307 0 .57.062.788.187.218.123.385.288.501.493.116.204.174.431.174.679 0 .463-.14.842-.42 1.136-.281.294-.683.44-1.205.44h-.008c-.27 0-.509-.059-.72-.177a1.302 1.302 0 0 1-.671-1.165c0-.291.061-.558.182-.8m.214 11.586v-6.21l-1.091-.331v-1.237l3.185-.404h.041l.501.356v7.834l1.035.154v1.084h-4.754v-1.084l1.083-.162zm4.528-6.59v-.946c.129-.051.313-.131.55-.238.237-.108.369-.173.396-.195a2.58 2.58 0 0 0 .518-.825c.096-.221.202-.498.315-.832.113-.335.207-.638.283-.91h1.496l.073 2.58h2.425v1.366h-2.409v4.302c0 .625.014 1.056.044 1.294.029.238.096.393.198.465.102.071.283.107.542.107h.008c.458 0 .962-.079 1.512-.235h.008l.348.993c-.194.157-.46.305-.796.443a6.623 6.623 0 0 1-1.125.34 5.679 5.679 0 0 1-1.2.134h-.016c-.733 0-1.279-.163-1.638-.488-.358-.326-.538-.83-.538-1.513v-5.842h-.994zm7.455 9.757c.076.051.237.097.485.14.248.043.474.065.679.065.529 0 .97-.165 1.326-.493.356-.329.684-.874.987-1.634h-1.027l-3.024-7.932-.736-.21v-1.059h4.811v1.059l-1.14.21 1.382 4.496.493 1.714.413-1.714 1.286-4.512-1.003-.194v-1.059h3.711v1.059l-.776.192a229.638 229.638 0 0 1-1.69 4.978c-.652 1.86-1.029 2.903-1.132 3.127-.323.871-.66 1.586-1.011 2.144-.35.558-.756.985-1.216 1.279-.461.294-1.002.441-1.621.441-.216 0-.444-.015-.684-.045-.24-.03-.411-.069-.513-.117v-1.935zm20.084-6.458-1.464-4.927-.25-1.122-.251 1.122-1.391 4.927h3.356zm-6.388 3.243 3.736-11.013h2.854l3.76 11.021.938.202v1.083h-5.118v-1.083l1.164-.211-.583-1.997h-4.067l-.565 2.029 1.285.179v1.083h-4.358l-.016-1.083.97-.21zm12.622.048V15.968l-1.188-.211v-.994l3.266-.396h.04l.486.355v11.983l1.091.162v1.083h-4.778v-1.083l1.083-.162zm5.692 0V15.968l-1.188-.211v-.994l3.266-.396h.041l.485.355v11.983l1.091.162v1.083h-4.778v-1.083l1.083-.162zm5.599-11.586c.122-.243.299-.435.534-.578.234-.143.513-.215.836-.215h.009c.307 0 .57.062.788.187.218.123.385.288.501.493.116.204.174.431.174.679 0 .463-.14.842-.42 1.136-.28.294-.682.44-1.205.44h-.008c-.27 0-.509-.059-.72-.177a1.302 1.302 0 0 1-.671-1.165c0-.291.061-.558.182-.8m.215 11.586v-6.21l-1.092-.331v-1.237l3.185-.404h.041l.501.356v7.834l1.035.154v1.084h-4.754v-1.084l1.084-.162zm9.952-3.517c-.901 0-1.551.159-1.953.477-.401.318-.602.722-.602 1.213 0 .495.114.877.343 1.144.229.267.538.4.926.4.189 0 .408-.049.659-.147.251-.098.459-.222.627-.37v-2.717zm0-1.359c0-.328-.045-.588-.134-.781-.089-.192-.252-.336-.489-.433-.237-.095-.577-.144-1.019-.144-.549 0-1.046.05-1.491.151-.445.1-.891.23-1.339.39h-.008l-.525-.977c.178-.151.473-.328.885-.53.413-.202.895-.38 1.447-.534a6.32 6.32 0 0 1 1.694-.23c.863 0 1.541.106 2.034.32.493.212.845.55 1.055 1.012.21.462.315 1.086.315 1.871v4.72h.882v1.027c-.275.06-.62.119-1.035.178-.416.06-.779.089-1.092.089-.286 0-.505-.025-.659-.076a.541.541 0 0 1-.327-.275c-.065-.133-.097-.325-.097-.579v-.25c-.265.311-.623.586-1.076.824-.452.237-.973.356-1.56.356-.518 0-.991-.106-1.419-.321a2.451 2.451 0 0 1-1.023-.945c-.253-.417-.38-.921-.38-1.51 0-1.018.474-1.785 1.423-2.302.949-.517 2.261-.775 3.938-.775v-.276zm5.337 4.93v-6.031l-.995-.313V19.08l2.919-.372h.041l.444.356v.59l-.016.372c.383-.356.872-.659 1.468-.91a4.667 4.667 0 0 1 1.823-.375c.668 0 1.195.118 1.581.353.385.236.662.613.832 1.131.17.519.255 1.223.255 2.112v4.407l.97.14v1.066h-4.495V26.9l.849-.148v-4.396c0-.522-.036-.929-.105-1.221-.071-.293-.197-.507-.38-.645-.184-.136-.448-.205-.792-.205-.313 0-.625.07-.935.209-.31.14-.575.304-.796.493v5.765l.938.148v1.05h-4.544V26.9l.938-.141zm16.154-7.925c.318.062.668.147 1.051.255.264.081.466.132.607.153l-.113 2.738h-1.626l-.42-1.625a.568.568 0 0 0-.315-.327 1.347 1.347 0 0 0-.559-.106c-1.121 0-1.681 1.023-1.681 3.069 0 .745.089 1.367.267 1.869.178.501.426.875.744 1.121.317.246.684.368 1.099.368.463 0 .873-.057 1.229-.17.356-.114.685-.262.987-.444l.444.938c-.162.183-.407.374-.736.574a5.16 5.16 0 0 1-1.16.505 4.672 4.672 0 0 1-1.395.206c-.97 0-1.773-.191-2.409-.572a3.49 3.49 0 0 1-1.411-1.579c-.305-.671-.459-1.45-.465-2.337 0-.929.195-1.751.587-2.465a4.141 4.141 0 0 1 1.661-1.668c.717-.397 1.549-.596 2.498-.596.426 0 .798.031 1.116.093m8.158 3.448.008-.581c0-.577-.097-1.025-.291-1.343-.194-.319-.523-.477-.986-.477-.308 0-.57.067-.785.201-.216.133-.387.376-.517.729-.129.353-.202.844-.218 1.471h2.789zm-4.928-1.38a3.88 3.88 0 0 1 1.581-1.604c.679-.371 1.466-.557 2.361-.557 1.137 0 2.009.265 2.615.795.607.531.923 1.292.95 2.284 0 .689-.04 1.212-.121 1.57h-5.223c.065.991.308 1.727.732 2.207.423.48.985.72 1.685.72.405 0 .826-.07 1.265-.211.44-.14.797-.299 1.072-.477l.469 1.003c-.188.2-.468.402-.837.606a6.097 6.097 0 0 1-1.269.514 5.175 5.175 0 0 1-1.435.206c-1.003 0-1.833-.191-2.491-.573a3.457 3.457 0 0 1-1.451-1.6c-.31-.684-.465-1.486-.465-2.405 0-.955.187-1.781.562-2.478" fill-rule="nonzero"/><path d="m232.799 0 18.403 18.403h36.806L269.606 0h-36.807z" fill="#c7202d" fill-rule="nonzero"/><path d="M288.009 18.403h-.001l.001.001v-.001z" fill="#fff"/><path d="M269.605 36.807h36.805l18.403-18.403h-36.805l-18.403 18.403z" fill="#a9d04a" fill-rule="nonzero"/><path d="M361.62 18.404v18.403h18.404L361.62 18.404z" fill="#979a9b" fill-rule="nonzero"/><path d="M324.814 18.403h-.001l.001.001v-.001z" fill="#fff"/><path d="m343.217 0-18.404 18.403h36.808L343.217 0z" fill="#153f6c" fill-rule="nonzero"/></svg>