<?xml version="1.0" encoding="UTF-8" standalone="no"?>
<!-- Created with Inkscape (http://www.inkscape.org/) -->

<svg
   width="74.903534mm"
   height="28.072294mm"
   viewBox="0 0 74.903534 28.072294"
   version="1.1"
   id="svg1"
   xmlns="http://www.w3.org/2000/svg"
   xmlns:svg="http://www.w3.org/2000/svg">
  <defs
     id="defs1" />
  <g
     id="layer1"
     transform="translate(-7.7076512,-5.0700334)">
    <g
       id="g34"
       transform="matrix(0.26458333,0,0,0.26458333,-25.365265,-18.398507)">
      <g
         id="CD_Raster"
         data-name="CD Raster">
        <rect
           class="cls-4"
           x="139.2"
           y="88.699997"
           width="69.199997"
           height="28.299999"
           id="rect2"
           style="fill:#ccff00;stroke-width:0px" />
        <rect
           class="cls-4"
           x="202.89999"
           y="88.699997"
           width="56.599998"
           height="70.800003"
           id="rect3"
           style="fill:#ccff00;stroke-width:0px" />
        <rect
           class="cls-4"
           x="294.89999"
           y="117"
           width="56.599998"
           height="42.5"
           id="rect4"
           style="fill:#ccff00;stroke-width:0px" />
        <rect
           class="cls-4"
           x="188.7"
           y="117"
           width="113.2"
           height="70.800003"
           id="rect5"
           style="fill:#ccff00;stroke-width:0px" />
        <rect
           class="cls-4"
           x="294.89999"
           y="173.60001"
           width="113.2"
           height="21.200001"
           id="rect6"
           style="fill:#ccff00;stroke-width:0px" />
        <rect
           class="cls-4"
           x="125"
           y="173.60001"
           width="56.599998"
           height="21.200001"
           id="rect7"
           style="fill:#ccff00;stroke-width:0px" />
      </g>
      <g
         id="Logo_3-zeilig"
         data-name="Logo 3-zeilig">
        <g
           id="g33">
          <g
             id="g9">
            <polygon
               class="cls-5"
               points="153.3,138.2 153.3,102.8 199.4,102.8 199.4,113.5 167.5,113.5 167.5,138.2 "
               id="polygon7"
               style="fill:#000000;stroke-width:0px" />
            <polygon
               class="cls-5"
               points="167.5,148.8 167.5,138.2 195.8,138.2 195.8,148.8 "
               id="polygon8"
               style="fill:#000000;stroke-width:0px" />
            <polygon
               class="cls-5"
               points="139.2,180.7 139.2,152.3 153.3,152.3 153.3,180.7 "
               id="polygon9"
               style="fill:#000000;stroke-width:0px" />
          </g>
          <g
             id="g22">
            <g
               id="g10">
              <path
                 class="cls-5"
                 d="m 353.1,129.8 c 1.1,0 1.9,-0.8 1.9,-1.9 0,-1.1 -0.8,-1.9 -1.9,-1.9 -1.1,0 -1.9,0.8 -1.9,1.9 0,1.1 0.8,1.9 1.9,1.9 z"
                 id="path9"
                 style="fill:#000000;stroke-width:0px" />
              <path
                 class="cls-5"
                 d="m 347.1,129.8 c 1.1,0 1.9,-0.8 1.9,-1.9 0,-1.1 -0.8,-1.9 -1.9,-1.9 -1.1,0 -1.9,0.8 -1.9,1.9 0,1.1 0.8,1.9 1.9,1.9 z"
                 id="path10"
                 style="fill:#000000;stroke-width:0px" />
            </g>
            <g
               id="g21">
              <path
                 class="cls-5"
                 d="m 217,140.6 v -9.5 h 4 v 9.9 c 0,3.5 1.1,4.6 3.1,4.6 2,0 3.1,-1.2 3.1,-4.6 v -9.9 h 3.8 v 9.5 c 0,5.9 -2.4,8.5 -7,8.5 -4.6,0 -7.1,-2.6 -7.1,-8.5 z"
                 id="path11"
                 style="fill:#000000;stroke-width:0px" />
              <path
                 class="cls-5"
                 d="m 234.7,131.1 h 4.1 l 4.6,8.8 1.8,3.9 h 0.1 c -0.2,-1.9 -0.5,-4.4 -0.5,-6.5 v -6.2 h 3.8 v 17.7 h -4.1 l -4.6,-8.8 -1.8,-3.8 H 238 c 0.2,1.9 0.5,4.3 0.5,6.4 v 6.3 h -3.8 v -17.7 0 z"
                 id="path12"
                 style="fill:#000000;stroke-width:0px" />
              <path
                 class="cls-5"
                 d="m 252.6,131.1 h 4 v 17.7 h -4 z"
                 id="path13"
                 style="fill:#000000;stroke-width:0px" />
              <path
                 class="cls-5"
                 d="m 258.6,131.1 h 4.2 l 2.2,8.3 c 0.5,1.9 0.9,3.7 1.4,5.7 h 0.1 c 0.5,-1.9 0.9,-3.7 1.4,-5.7 l 2.1,-8.3 h 4.1 l -5.3,17.7 H 264 Z"
                 id="path14"
                 style="fill:#000000;stroke-width:0px" />
              <path
                 class="cls-5"
                 d="m 276.1,131.1 h 11.1 v 3.4 h -7.1 v 3.6 h 6.1 v 3.3 h -6.1 v 4.1 h 7.4 v 3.3 h -11.4 z"
                 id="path15"
                 style="fill:#000000;stroke-width:0px" />
              <path
                 class="cls-5"
                 d="m 304.9,148.8 -4,-7.1 c 1.9,-0.8 3.2,-2.5 3.2,-5.1 0,-4.2 -3.1,-5.5 -6.9,-5.5 h -6.3 v 17.7 h 4 v -6.4 h 2.2 l 3.4,6.3 h 4.4 z m -10,-14.5 h 2 c 2.1,0 3.2,0.6 3.2,2.3 0,1.7 -1.1,2.7 -3.2,2.7 h -2 z"
                 id="path16"
                 style="fill:#000000;stroke-width:0px" />
              <path
                 class="cls-5"
                 d="m 306.1,146.6 2.3,-2.7 c 1.2,1.1 2.9,1.9 4.4,1.9 1.5,0 2.5,-0.7 2.5,-1.7 0,-1 -1,-1.5 -2.5,-2.1 l -2.3,-1 c -1.8,-0.7 -3.6,-2.3 -3.6,-4.8 0,-2.5 2.6,-5.3 6.3,-5.3 3.7,0 4.2,0.8 5.7,2.3 l -2,2.5 c -1.2,-0.9 -2.3,-1.4 -3.7,-1.4 -1.4,0 -2.3,0.6 -2.3,1.6 0,1 1.1,1.5 2.7,2.1 l 2.3,0.9 c 2.2,0.8 3.5,2.3 3.5,4.8 0,2.5 -2.4,5.5 -6.7,5.5 -2.3,-0.2 -4.8,-1.1 -6.6,-2.7 z"
                 id="path17"
                 style="fill:#000000;stroke-width:0px" />
              <path
                 class="cls-5"
                 d="m 322.6,131.1 h 4 v 17.7 h -4 z"
                 id="path18"
                 style="fill:#000000;stroke-width:0px" />
              <path
                 class="cls-5"
                 d="m 334.2,134.5 h -4.9 v -3.4 H 343 v 3.4 h -4.9 v 14.3 h -4 v -14.3 0 z"
                 id="path19"
                 style="fill:#000000;stroke-width:0px" />
              <path
                 class="cls-5"
                 d="m 353.9,148.8 h 4.2 l -5.5,-17.7 h -4.8 l -5.5,17.7 h 4.1 l 1.1,-4.2 h 5.4 l 1.1,4.2 z m -5.7,-7.3 0.5,-1.6 c 0.5,-1.8 1,-3.8 1.4,-5.7 h 0.1 c 0.5,1.9 1,4 1.4,5.7 l 0.4,1.6 z"
                 id="path20"
                 style="fill:#000000;stroke-width:0px" />
              <path
                 class="cls-5"
                 d="m 362,134.5 h -4.9 v -3.4 h 13.8 v 3.4 H 366 v 14.3 h -4 z"
                 id="path21"
                 style="fill:#000000;stroke-width:0px" />
            </g>
          </g>
          <g
             id="g26">
            <path
               class="cls-5"
               d="m 217,102.8 h 11.2 v 3.3 H 221 v 4.1 h 6.1 v 3.3 H 221 v 6.9 h -4 v -17.7 0 z"
               id="path22"
               style="fill:#000000;stroke-width:0px" />
            <path
               class="cls-5"
               d="m 245.4,120.5 -4,-7.1 c 1.9,-0.8 3.2,-2.5 3.2,-5.1 0,-4.2 -3.1,-5.5 -6.9,-5.5 h -6.4 v 17.7 h 4 V 114 h 2.2 l 3.4,6.3 h 4.5 z m -10,-14.5 h 2 c 2.1,0 3.2,0.6 3.2,2.3 0,1.7 -1.1,2.7 -3.2,2.7 h -2 z"
               id="path23"
               style="fill:#000000;stroke-width:0px" />
            <path
               class="cls-5"
               d="m 248.2,102.8 h 11.1 v 3.3 h -7.1 v 3.6 h 6.1 v 3.3 h -6.1 v 4.1 h 7.4 v 3.3 h -11.4 v -17.7 z"
               id="path24"
               style="fill:#000000;stroke-width:0px" />
            <path
               class="cls-5"
               d="m 263.2,102.8 h 4 v 17.7 h -4 z"
               id="path25"
               style="fill:#000000;stroke-width:0px" />
            <path
               class="cls-5"
               d="m 271.2,102.8 h 11.1 v 3.3 h -7.1 v 3.6 h 6.1 v 3.3 h -6.1 v 4.1 h 7.4 v 3.3 h -11.4 v -17.7 z"
               id="path26"
               style="fill:#000000;stroke-width:0px" />
          </g>
          <g
             id="g32">
            <path
               class="cls-5"
               d="m 217,162.9 h 5 c 3.6,0 6,1.2 6,4.3 0,3.1 -1,3.3 -2.7,3.8 v 0 c 2.2,0.5 3.7,1.9 3.7,4.4 0,3.5 -2.7,5.2 -6.6,5.2 H 217 Z m 4.7,7.7 c 3.3,0 4.6,-1.2 4.6,-3.1 0,-1.9 -1.5,-3.1 -4.5,-3.1 h -2.9 v 6.2 z m 0.4,8.6 c 3.2,0 5.2,-1.2 5.2,-3.7 0,-2.5 -1.9,-3.4 -5.2,-3.4 h -3.3 v 7.1 z"
               id="path27"
               style="fill:#000000;stroke-width:0px" />
            <path
               class="cls-5"
               d="m 232.9,162.9 h 10 v 1.6 h -8.2 v 6 h 6.9 v 1.6 h -6.9 v 7 h 8.4 v 1.6 H 232.9 V 163 Z"
               id="path28"
               style="fill:#000000;stroke-width:0px" />
            <path
               class="cls-5"
               d="m 258.9,180.7 -4.6,-7.9 c 2.5,-0.5 4.2,-2.2 4.2,-4.9 0,-2.7 -2.5,-4.9 -6.1,-4.9 h -5.3 v 17.7 h 1.9 v -7.8 h 3.4 l 4.5,7.8 h 2.1 z m -10,-16.2 h 3.2 c 2.9,0 4.5,0.9 4.5,3.3 0,2.4 -1.6,3.6 -4.5,3.6 h -3.2 z"
               id="path29"
               style="fill:#000000;stroke-width:0px" />
            <path
               class="cls-5"
               d="m 262.3,162.9 h 1.9 V 179 h 7.9 v 1.6 h -9.7 v -17.7 0 z"
               id="path30"
               style="fill:#000000;stroke-width:0px" />
            <path
               class="cls-5"
               d="m 275.2,162.9 h 1.9 v 17.7 h -1.9 z"
               id="path31"
               style="fill:#000000;stroke-width:0px" />
            <path
               class="cls-5"
               d="m 282.2,162.9 h 1.9 l 6.8,11.7 1.9,3.6 h 0.1 c -0.1,-1.8 -0.2,-3.6 -0.2,-5.4 v -9.9 h 1.8 v 17.7 h -1.9 l -6.8,-11.7 -1.9,-3.6 h -0.1 c 0.1,1.8 0.2,3.5 0.2,5.3 v 10 h -1.8 z"
               id="path32"
               style="fill:#000000;stroke-width:0px" />
          </g>
        </g>
      </g>
    </g>
  </g>
</svg>
