<?xml version="1.0" encoding="UTF-8" standalone="no"?>
<!-- Created with Inkscape (http://www.inkscape.org/) -->

<svg
   width="91.432762mm"
   height="73.309181mm"
   viewBox="0 0 91.43276 73.309181"
   version="1.1"
   id="svg5"
   sodipodi:docname="logo.svg"
   inkscape:export-filename="/Users/colombj/github_repo/03_openmake/openmakewebsite/static/img/logo-small.png"
   inkscape:export-xdpi="30"
   inkscape:export-ydpi="30"
   inkscape:version="1.1 (c68e22c387, 2021-05-23)"
   xmlns:inkscape="http://www.inkscape.org/namespaces/inkscape"
   xmlns:sodipodi="http://sodipodi.sourceforge.net/DTD/sodipodi-0.dtd"
   xmlns:xlink="http://www.w3.org/1999/xlink"
   xmlns="http://www.w3.org/2000/svg"
   xmlns:svg="http://www.w3.org/2000/svg">
  <sodipodi:namedview
     id="namedview7"
     pagecolor="#ffffff"
     bordercolor="#666666"
     borderopacity="1.0"
     inkscape:pageshadow="2"
     inkscape:pageopacity="0.0"
     inkscape:pagecheckerboard="0"
     inkscape:document-units="mm"
     showgrid="false"
     fit-margin-top="0.6"
     fit-margin-left="0.6"
     fit-margin-right="0.6"
     fit-margin-bottom="0.6"
     inkscape:zoom="2.2673749"
     inkscape:cx="116.21369"
     inkscape:cy="167.81522"
     inkscape:window-width="1920"
     inkscape:window-height="1017"
     inkscape:window-x="0"
     inkscape:window-y="0"
     inkscape:window-maximized="1"
     inkscape:current-layer="text6582"
     showguides="true"
     inkscape:guide-bbox="true"
     inkscape:snap-intersection-paths="true">
    <sodipodi:guide
       position="31.040727,32.873242"
       orientation="1,0"
       id="guide4893" />
    <sodipodi:guide
       position="31.040727,32.873242"
       orientation="0,-1"
       id="guide4895" />
  </sodipodi:namedview>
  <defs
     id="defs2">
    <linearGradient
       inkscape:collect="always"
       id="linearGradient10692">
      <stop
         style="stop-color:#986dbd;stop-opacity:1;"
         offset="0"
         id="stop10698" />
      <stop
         style="stop-color:#986dbd;stop-opacity:0;"
         offset="1"
         id="stop10700" />
    </linearGradient>
    <linearGradient
       id="linearGradient10402"
       inkscape:swatch="solid">
      <stop
         style="stop-color:#986dbd;stop-opacity:1;"
         offset="0"
         id="stop10400" />
    </linearGradient>
    <rect
       x="202.35175"
       y="161.88139"
       width="404.70349"
       height="293.94254"
       id="rect1376" />
    <rect
       x="202.35175"
       y="161.88139"
       width="404.70349"
       height="293.94254"
       id="rect6584" />
    <rect
       x="202.35175"
       y="161.88139"
       width="404.70349"
       height="293.94254"
       id="rect12716" />
    <rect
       x="202.35175"
       y="161.88139"
       width="404.70349"
       height="293.94254"
       id="rect12964" />
    <rect
       x="202.35175"
       y="161.88139"
       width="404.70349"
       height="293.94254"
       id="rect12966" />
    <rect
       x="202.35175"
       y="161.88139"
       width="404.70349"
       height="293.94254"
       id="rect12968" />
    <linearGradient
       inkscape:collect="always"
       xlink:href="#linearGradient10692"
       id="linearGradient10694"
       x1="484.33984"
       y1="187.75883"
       x2="595.96094"
       y2="187.75883"
       gradientUnits="userSpaceOnUse" />
    <linearGradient
       inkscape:collect="always"
       xlink:href="#linearGradient10692"
       id="linearGradient10696"
       x1="509.73047"
       y1="234.75508"
       x2="605.43854"
       y2="234.75508"
       gradientUnits="userSpaceOnUse" />
  </defs>
  <g
     inkscape:label="Layer 1"
     inkscape:groupmode="layer"
     id="layer1"
     transform="translate(-19.253892,-57.234456)">
    <g
       id="g4851">
      <g
         aria-label="Open. 
"
         transform="matrix(0.8083845,0,0,1.077846,-371.67893,-124.59419)"
         id="text1374"
         style="font-size:40px;line-height:1.25;text-align:end;white-space:pre;shape-inside:url(#rect1376);mix-blend-mode:color;fill:#986dbd">
        <path
           d="m 512.03516,184.02432 q 0,4.29687 -1.69922,7.55859 -1.69922,3.26172 -4.86328,5 -3.16407,1.71875 -7.38282,1.71875 -6.48437,0 -10.17578,-3.80859 -3.67187,-3.82813 -3.67187,-10.46875 0,-6.6211 3.67187,-10.33203 3.67188,-3.71094 10.21485,-3.71094 6.54296,0 10.21484,3.75 3.69141,3.75 3.69141,10.29297 z m -5.87891,0 q 0,-4.45313 -2.10938,-6.97266 -2.10937,-2.53906 -5.91796,-2.53906 -3.86719,0 -5.97657,2.51953 -2.10937,2.5 -2.10937,6.99219 0,4.53125 2.14844,7.14844 2.16796,2.59765 5.89843,2.59765 3.86719,0 5.95703,-2.53906 2.10938,-2.53906 2.10938,-7.20703 z"
           style="font-weight:bold;font-family:Arial;-inkscape-font-specification:'Arial, Bold'"
           id="path4853" />
        <path
           d="m 536.50781,187.24697 q 0,5.29297 -2.1289,8.1836 -2.10938,2.87109 -5.97657,2.87109 -2.22656,0 -3.88672,-0.95703 -1.64062,-0.97656 -2.51953,-2.79297 h -0.11718 q 0.11718,0.58594 0.11718,3.55469 v 8.10547 h -5.48828 v -24.57031 q 0,-2.98829 -0.15625,-4.86329 h 5.33203 q 0.0977,0.35157 0.15625,1.38672 0.0781,1.03516 0.0781,2.05078 h 0.0781 q 1.85547,-3.88671 6.75782,-3.88671 3.6914,0 5.72265,2.85156 2.03125,2.83203 2.03125,8.0664 z m -5.72265,0 q 0,-7.10937 -4.35547,-7.10937 -2.1875,0 -3.35938,1.91406 -1.15234,1.91406 -1.15234,5.35156 0,3.41797 1.15234,5.29297 1.17188,1.85547 3.32031,1.85547 4.39454,0 4.39454,-7.30469 z"
           style="font-weight:bold;font-family:Arial;-inkscape-font-specification:'Arial, Bold'"
           id="path4855" />
        <path
           d="m 549.59375,198.30166 q -4.76563,0 -7.32422,-2.8125 -2.55859,-2.83203 -2.55859,-8.24219 0,-5.23437 2.59765,-8.04687 2.59766,-2.8125 7.36328,-2.8125 4.55079,0 6.95313,3.02734 2.40234,3.00782 2.40234,8.82813 v 0.15625 h -13.55468 q 0,3.08594 1.13281,4.66797 1.15234,1.5625 3.26172,1.5625 2.91015,0 3.67187,-2.51953 l 5.17578,0.44921 q -2.24609,5.74219 -9.12109,5.74219 z m 0,-18.45703 q -1.93359,0 -2.98828,1.34766 -1.03516,1.34765 -1.09375,3.76953 h 8.20312 q -0.15625,-2.5586 -1.23047,-3.82813 -1.07421,-1.28906 -2.89062,-1.28906 z"
           style="font-weight:bold;font-family:Arial;-inkscape-font-specification:'Arial, Bold'"
           id="path4857" />
        <path
           d="m 576.87891,197.91104 v -11.85547 q 0,-5.56641 -3.76954,-5.56641 -1.99218,0 -3.22265,1.71875 -1.21094,1.69922 -1.21094,4.375 v 11.32813 h -5.48828 v -16.40625 q 0,-1.69922 -0.0586,-2.77344 -0.0391,-1.09375 -0.0977,-1.95313 h 5.23437 q 0.0586,0.3711 0.15625,1.99219 0.0977,1.60156 0.0977,2.20703 h 0.0781 q 1.11328,-2.42187 2.79296,-3.51562 1.67969,-1.09375 4.00391,-1.09375 3.35938,0 5.15625,2.07031 1.79688,2.07031 1.79688,6.05469 v 13.41797 z"
           style="font-weight:bold;font-family:Arial;-inkscape-font-specification:'Arial, Bold'"
           id="path4859" />
        <path
           d="m 587.54297,197.91104 v -5.95703 h 5.64453 v 5.95703 z"
           style="font-weight:bold;font-family:Arial;-inkscape-font-specification:'Arial, Bold'"
           id="path4861" />
      </g>
      <g
         aria-label="
Make"
         transform="matrix(0.8083845,0,0,1.077846,-384.07742,-138.76969)"
         id="text6582"
         style="font-size:40px;line-height:1.25;text-align:end;white-space:pre;shape-inside:url(#rect6584);mix-blend-mode:color;fill:#986dbd">
        <path
           d="m 532.21628,246.88304 v -16.67969 q 0,-0.56641 0,-1.13281 0.0195,-0.56641 0.19531,-4.86328 -1.38672,5.2539 -2.05078,7.32421 l -4.96094,15.35157 h -4.10156 l -4.96094,-15.35157 -2.08984,-7.32421 q 0.23437,4.53125 0.23437,5.99609 v 16.67969 h -5.11719 v -27.51953 h 7.71485 l 4.92187,15.39062 0.42969,1.48438 0.9375,3.6914 1.23047,-4.41406 5.05859,-16.15234 h 7.67578 v 27.51953 z"
           style="font-weight:bold;font-family:Arial;-inkscape-font-specification:'Arial, Bold'"
           id="path4864" />
        <path
           d="m 547.68503,247.27366 q -3.06641,0 -4.78516,-1.66015 -1.71875,-1.67969 -1.71875,-4.70704 0,-3.28125 2.12891,-5 2.14843,-1.71875 6.21093,-1.75781 l 4.55079,-0.0781 v -1.07422 q 0,-2.07031 -0.72266,-3.06641 -0.72266,-1.01562 -2.36328,-1.01562 -1.52344,0 -2.2461,0.70312 -0.70312,0.6836 -0.8789,2.28516 l -5.72266,-0.27344 q 0.52735,-3.08594 2.8125,-4.66797 2.30469,-1.60156 6.26953,-1.60156 4.00391,0 6.17188,1.97266 2.16797,1.97265 2.16797,5.60546 v 7.69532 q 0,1.77734 0.39062,2.46093 0.41016,0.66407 1.34766,0.66407 0.625,0 1.21094,-0.11719 v 2.96875 q -0.48829,0.11719 -0.87891,0.21484 -0.39063,0.0977 -0.78125,0.15625 -0.39063,0.0586 -0.83984,0.0977 -0.42969,0.0391 -1.01563,0.0391 -2.07031,0 -3.06641,-1.01562 -0.97656,-1.01563 -1.17187,-2.98828 h -0.11719 q -2.30469,4.16015 -6.95312,4.16015 z m 6.38672,-10.17578 -2.8125,0.0391 q -1.91407,0.0781 -2.71485,0.42969 -0.80078,0.33203 -1.23047,1.03516 -0.41015,0.70312 -0.41015,1.875 0,1.5039 0.68359,2.24609 0.70313,0.72266 1.85547,0.72266 1.28906,0 2.34375,-0.70313 1.07422,-0.70312 1.67969,-1.93359 0.60547,-1.25 0.60547,-2.63672 z"
           style="font-weight:bold;font-family:Arial;-inkscape-font-specification:'Arial, Bold'"
           id="path4866" />
        <path
           d="m 578.5444,246.88304 -5.64453,-9.57032 -2.36328,1.64063 v 7.92969 h -5.48828 v -28.98438 h 5.48828 v 16.60156 l 7.53906,-8.75 h 5.89844 l -7.42188,8.24219 7.98829,12.89063 z"
           style="font-weight:bold;font-family:Arial;-inkscape-font-specification:'Arial, Bold'"
           id="path4868" />
        <path
           d="m 595.94675,247.27366 q -4.76563,0 -7.32422,-2.8125 -2.5586,-2.83203 -2.5586,-8.24219 0,-5.23437 2.59766,-8.04687 2.59766,-2.8125 7.36328,-2.8125 4.55078,0 6.95313,3.02734 2.40234,3.00782 2.40234,8.82813 v 0.15625 h -13.55469 q 0,3.08594 1.13281,4.66797 1.15235,1.5625 3.26172,1.5625 2.91016,0 3.67188,-2.51953 l 5.17578,0.44921 q -2.24609,5.74219 -9.12109,5.74219 z m 0,-18.45703 q -1.9336,0 -2.98829,1.34766 -1.03515,1.34765 -1.09375,3.76953 h 8.20313 q -0.15625,-2.5586 -1.23047,-3.82813 -1.07422,-1.28906 -2.89062,-1.28906 z"
           style="font-weight:bold;font-family:Arial;-inkscape-font-specification:'Arial, Bold'"
           id="path4870" />
      </g>
    </g>
  </g>
</svg>
